<mxfile host="65bd71144e">
    <diagram id="VszEqyM40c7F1RxRw8hJ" name="Page-1">
        <mxGraphModel dx="356" dy="219" grid="1" gridSize="10" guides="1" tooltips="1" connect="1" arrows="1" fold="1" page="1" pageScale="1" pageWidth="850" pageHeight="1100" math="0" shadow="0">
            <root>
                <mxCell id="0"/>
                <mxCell id="1" parent="0"/>
                <mxCell id="2" value="id, username, password&lt;br&gt;1 , mohamed, 645&lt;br&gt;2, ahmed, 648" style="rounded=0;whiteSpace=wrap;html=1;fillColor=#1ba1e2;fontColor=#ffffff;strokeColor=#006EAF;" vertex="1" parent="1">
                    <mxGeometry x="50" y="60" width="240" height="150" as="geometry"/>
                </mxCell>
                <mxCell id="3" value="id, name, quantity" style="rounded=0;whiteSpace=wrap;html=1;fillColor=#1ba1e2;fontColor=#ffffff;strokeColor=#006EAF;" vertex="1" parent="1">
                    <mxGeometry x="360" y="60" width="240" height="150" as="geometry"/>
                </mxCell>
                <mxCell id="4" value="id, order_key, user_id, p_id&lt;br&gt;1, 10, 1, 1&lt;br&gt;2, 10, 1, 2&lt;br&gt;3, 11, 2, 1&lt;br&gt;" style="rounded=0;whiteSpace=wrap;html=1;fillColor=#1ba1e2;fontColor=#ffffff;strokeColor=#006EAF;" vertex="1" parent="1">
                    <mxGeometry x="240" y="230" width="240" height="150" as="geometry"/>
                </mxCell>
            </root>
        </mxGraphModel>
    </diagram>
</mxfile>